<svg width="104" height="101" viewBox="0 0 104 101" fill="none" xmlns="http://www.w3.org/2000/svg">
<g clip-path="url(#clip0_12_218)">
<path d="M96.3228 0H7.67722C5.6411 0 3.68837 0.785517 2.24861 2.18374C0.808849 3.58197 0 5.47837 0 7.45577V93.5442C0 95.5216 0.808849 97.418 2.24861 98.8163C3.68837 100.214 5.6411 101 7.67722 101H96.3228C98.3589 101 100.312 100.214 101.751 98.8163C103.191 97.418 104 95.5216 104 93.5442V7.45577C104 5.47837 103.191 3.58197 101.751 2.18374C100.312 0.785517 98.3589 0 96.3228 0ZM30.9978 86.0394H15.3617V37.8049H30.9978V86.0394ZM23.1689 31.1206C21.3952 31.1109 19.6643 30.5912 18.1945 29.627C16.7247 28.6629 15.582 27.2975 14.9105 25.7032C14.239 24.1089 14.0688 22.3572 14.4215 20.669C14.7741 18.9809 15.6338 17.4321 16.892 16.218C18.1502 15.0039 19.7505 14.179 21.491 13.8474C23.2315 13.5157 25.0342 13.6922 26.6715 14.3546C28.3088 15.0169 29.7073 16.1355 30.6907 17.569C31.674 19.0026 32.1981 20.6869 32.1967 22.4094C32.2134 23.5626 31.9909 24.7073 31.5424 25.7752C31.0939 26.8431 30.4286 27.8125 29.5861 28.6254C28.7437 29.4383 27.7413 30.0781 26.6388 30.5068C25.5363 30.9355 24.3562 31.1443 23.1689 31.1206ZM88.6311 86.0815H73.0022V59.7303C73.0022 51.9589 69.6006 49.5601 65.2095 49.5601C60.5728 49.5601 56.0228 52.9549 56.0228 59.9267V86.0815H40.3867V37.8399H55.4233V44.5242H55.6256C57.135 41.5573 62.4217 36.4863 70.4889 36.4863C79.2133 36.4863 88.6383 41.5152 88.6383 56.2444L88.6311 86.0815Z" fill="#0A66C2"/>
</g>
<defs>
<clipPath id="clip0_12_218">
<rect width="104" height="101" fill="white"/>
</clipPath>
</defs>
</svg>
